FILE "Vehicle Cavalier (Japan).bin" BINARY
  TRACK 01 MODE2/2352
    INDEX 01 00:00:00
  TRACK 02 AUDIO
    INDEX 00 04:43:17
    INDEX 01 04:45:17
  TRACK 03 AUDIO
    INDEX 00 10:34:43
    INDEX 01 10:36:43
  TRACK 04 AUDIO
    INDEX 00 14:52:24
    INDEX 01 14:54:24
  TRACK 05 AUDIO
    INDEX 00 15:54:36
    INDEX 01 15:56:36
REM LEADOUT 18:55:20
